<svg viewBox="0 -960 960 960" xmlns="http://www.w3.org/2000/svg"><path fill="currentColor" d="M 440 -920 L 440 -760 L 520 -760 L 520 -920 L 440 -920 z M 818.67969 -885.5332 L 583.66602 -651.38281 C 553.04363 -670.31258 518.55019 -680 480 -680 C 424.66678 -680 377.49992 -660.49992 338.5 -621.5 C 299.50008 -582.50008 280 -535.33322 280 -480 C 280 -441.71314 289.5643 -407.43184 308.23633 -376.96484 L 97.058594 -166.5625 L 168.59375 -92.332031 L 263.80078 -187.18945 C 267.09506 -183.63709 270.46257 -180.11555 273.9375 -176.64062 C 343.93736 -106.64077 428.9377 -71.640625 528.9375 -71.640625 C 628.9373 -71.640625 713.93764 -106.64077 783.9375 -176.64062 C 853.93736 -246.64049 888.9375 -331.64082 888.9375 -431.64062 C 888.9375 -440.97395 888.60417 -450.14064 887.9375 -459.14062 C 887.27083 -468.14062 886.27083 -476.97398 884.9375 -485.64062 C 865.60421 -458.30735 840.60411 -436.47393 809.9375 -420.14062 C 779.27089 -403.80733 745.60409 -395.64062 708.9375 -395.64062 C 648.93762 -395.64062 597.93742 -416.64072 555.9375 -458.64062 C 552.62172 -461.95641 549.47084 -465.3433 546.42188 -468.77344 L 890.21484 -811.30273 L 818.67969 -885.5332 z M 212 -806 L 155 -747 L 256 -650 L 308 -706 L 212 -806 z M 480 -600 C 495.83397 -600 510.50253 -597.28065 524.08008 -592.01562 L 367.83594 -436.34375 C 362.67843 -449.80488 360 -464.32853 360 -480 C 360 -513.33327 371.66671 -541.66671 395 -565 C 418.33329 -588.33329 446.66673 -600 480 -600 z M 40 -520 L 40 -440 L 200 -440 L 200 -520 L 40 -520 z M 489.73047 -412.28906 C 492.87534 -408.86757 496.09809 -405.48004 499.4375 -402.14062 C 557.10405 -344.47408 626.93766 -315.64062 708.9375 -315.64062 C 722.27081 -315.64062 735.60419 -316.64064 748.9375 -318.64062 C 762.27081 -320.64062 775.60419 -323.3073 788.9375 -326.64062 C 767.60421 -274.64074 733.60407 -232.4739 686.9375 -200.14062 C 640.27093 -167.80736 587.60405 -151.64062 528.9375 -151.64062 C 451.60432 -151.64062 385.60406 -178.97407 330.9375 -233.64062 C 327.48999 -237.08813 324.17746 -240.59082 320.95312 -244.13086 L 489.73047 -412.28906 z " /></svg>